<svg width="48" height="48" viewBox="0 0 48 48" fill="none" xmlns="http://www.w3.org/2000/svg">
<path d="M18.3163 36.508C18.4524 36.0996 18.8346 35.8242 19.265 35.8242H28.7349C29.1653 35.8242 29.5475 36.0996 29.6836 36.508L30.6323 36.1918L29.6836 36.508L30.4091 38.6845C30.6249 39.332 30.1429 40.0007 29.4604 40.0007H18.5395C17.8569 40.0007 17.375 39.332 17.5908 38.6845L18.3163 36.508Z" fill="white" fill-opacity="0.2" stroke="#00B3FF" stroke-width="2"/>
<path fill-rule="evenodd" clip-rule="evenodd" d="M40.47 8.05882H7.52879V28.6471H40.47V8.05882ZM7.52879 6C6.39174 6 5.46997 6.92177 5.46997 8.05882V30.7059H42.5288V8.05882C42.5288 6.92177 41.607 6 40.47 6H7.52879Z" fill="#00B3FF"/>
<path fill-rule="evenodd" clip-rule="evenodd" d="M7.92684 30.7053L3.66499 38.9406H44.3348L40.0729 30.7053H7.92684ZM7.30049 28.6465C6.91573 28.6465 6.56308 28.8611 6.38624 29.2028L1.05893 39.4969C0.704334 40.1821 1.20166 40.9994 1.97317 40.9994H46.0266C46.7981 40.9994 47.2954 40.1821 46.9408 39.4969L41.6135 29.2028C41.4367 28.8611 41.0841 28.6465 40.6993 28.6465H7.30049Z" fill="#00B3FF"/>
</svg>
