<svg width="32" height="32" viewBox="0 0 32 32" fill="none" xmlns="http://www.w3.org/2000/svg">
<path fill-rule="evenodd" clip-rule="evenodd" d="M9.33337 1.33203H8.00004C6.52728 1.33203 5.33337 2.52594 5.33337 3.9987V22.6654C5.33337 24.1381 6.52728 25.332 8.00004 25.332H24C25.4728 25.332 26.6667 24.1381 26.6667 22.6654V3.9987C26.6667 2.52594 25.4728 1.33203 24 1.33203H22.6667V2.66536H24C24.7364 2.66536 25.3333 3.26232 25.3333 3.9987V22.6654C25.3333 23.4017 24.7364 23.9987 24 23.9987H8.00004C7.26366 23.9987 6.66671 23.4017 6.66671 22.6654V3.9987C6.66671 3.26232 7.26366 2.66536 8.00004 2.66536H9.33337V1.33203Z" fill="#00B6FF"/>
<path fill-rule="evenodd" clip-rule="evenodd" d="M10.6667 1.33333V9.33333C10.6667 12.2789 13.0545 14.6667 16 14.6667C18.9455 14.6667 21.3333 12.2789 21.3333 9.33333V1.33333H10.6667ZM10.5641 0C9.88441 0 9.33337 0.551034 9.33337 1.23077V9.33333C9.33337 13.0152 12.3181 16 16 16C19.6819 16 22.6667 13.0152 22.6667 9.33333V1.23077C22.6667 0.551034 22.1156 0 21.4359 0H10.5641Z" fill="#00B6FF"/>
<path fill-rule="evenodd" clip-rule="evenodd" d="M10.6668 25.3333H8.00008V26.6667H10.6668V25.3333ZM6.66675 24V26.6667C6.66675 27.403 7.2637 28 8.00008 28H10.6668C11.4031 28 12.0001 27.403 12.0001 26.6667V24H6.66675Z" fill="#00B6FF"/>
<path fill-rule="evenodd" clip-rule="evenodd" d="M24 25.3333H21.3333V26.6667H24V25.3333ZM20 24V26.6667C20 27.403 20.597 28 21.3333 28H24C24.7364 28 25.3333 27.403 25.3333 26.6667V24H20Z" fill="#00B6FF"/>
<path d="M18.638 7.15309L15.9671 12.5366C15.8492 12.774 15.5283 12.6589 15.5532 12.388L15.8434 9.21786H13.5555C13.3859 9.21786 13.2791 9.01147 13.362 8.84418L16.033 3.46079C16.1508 3.22336 16.4717 3.33847 16.4468 3.60938L16.1566 6.77954H18.4445C18.6141 6.77954 18.7209 6.9858 18.638 7.15309Z" fill="#00B6FF"/>
<path fill-rule="evenodd" clip-rule="evenodd" d="M13.3333 19.332C12.9651 19.332 12.6667 19.6305 12.6667 19.9987C12.6667 20.3669 12.9651 20.6654 13.3333 20.6654H18.6667C19.0348 20.6654 19.3333 20.3669 19.3333 19.9987C19.3333 19.6305 19.0348 19.332 18.6667 19.332H13.3333Z" fill="#00B6FF"/>
</svg>
