<svg width="32" height="32" viewBox="0 0 32 32" fill="none" xmlns="http://www.w3.org/2000/svg">
<g clip-path="url(#clip0_155_10)">
<mask id="mask0_155_10" style="mask-type:luminance" maskUnits="userSpaceOnUse" x="0" y="0" width="32" height="32">
<path d="M32 0H0V32H32V0Z" fill="white"/>
</mask>
<g mask="url(#mask0_155_10)">
<path d="M29.3334 18.6654C29.3334 19.4017 28.7364 19.9987 28 19.9987C27.2636 19.9987 26.6667 19.4017 26.6667 18.6654C26.6667 17.929 27.2636 17.332 28 17.332C28.7364 17.332 29.3334 17.929 29.3334 18.6654Z" fill="#00B6FF"/>
<path fill-rule="evenodd" clip-rule="evenodd" d="M29.3334 10.6654H5.33335C4.59697 10.6654 4.00002 11.2623 4.00002 11.9987V21.332H30.6667V11.9987C30.6667 11.2623 30.0697 10.6654 29.3334 10.6654ZM5.33335 9.33203C3.86059 9.33203 2.66669 10.5259 2.66669 11.9987V21.332C2.66669 22.0684 3.26364 22.6654 4.00002 22.6654H30.6667C31.4031 22.6654 32 22.0684 32 21.332V11.9987C32 10.5259 30.8061 9.33203 29.3334 9.33203H5.33335Z" fill="#00B6FF"/>
<path fill-rule="evenodd" clip-rule="evenodd" d="M24 17.3333H10.6666V21.3333H24V17.3333ZM10.6666 16C9.93027 16 9.33331 16.597 9.33331 17.3333V22.6667H25.3333V17.3333C25.3333 16.597 24.7364 16 24 16H10.6666Z" fill="#00B6FF"/>
<path fill-rule="evenodd" clip-rule="evenodd" d="M23.9736 22.6654H10.692L9.62615 27.9987H25.0403L23.9736 22.6654ZM10.692 21.332C10.0563 21.332 9.50904 21.7808 9.38447 22.4041L8.31866 27.7374C8.1538 28.5624 8.78483 29.332 9.62615 29.332H25.0403C25.8817 29.332 26.5127 28.5623 26.3477 27.7372L25.281 22.4039C25.1564 21.7806 24.6092 21.332 23.9736 21.332H10.692Z" fill="#00B6FF"/>
<path fill-rule="evenodd" clip-rule="evenodd" d="M23.3267 4.0013H11.34L10.8066 9.33464H23.86L23.3267 4.0013ZM24.6534 3.86863C24.5852 3.18703 24.0117 2.66797 23.3267 2.66797H11.34C10.655 2.66797 10.0814 3.18703 10.0132 3.86863L9.33331 10.668H25.3333L24.6534 3.86863Z" fill="#00B6FF"/>
</g>
</g>
<defs>
<clipPath id="clip0_155_10">
<rect width="32" height="32" fill="white"/>
</clipPath>
</defs>
</svg>
