<svg width="48" height="48" viewBox="0 0 48 48" fill="none" xmlns="http://www.w3.org/2000/svg">
<path fill-rule="evenodd" clip-rule="evenodd" d="M32.15 16.3698C33.61 16.3698 34.8 15.1798 34.8 13.7198C34.8 12.2598 33.61 11.0698 32.15 11.0698C30.69 11.0698 29.5 12.2598 29.5 13.7198C29.5 15.1798 30.69 16.3698 32.15 16.3698ZM32.15 18.1398C34.59 18.1398 36.57 16.1598 36.57 13.7198C36.57 11.2798 34.59 9.2998 32.15 9.2998C29.71 9.2998 27.73 11.2798 27.73 13.7198C27.73 16.1598 29.71 18.1398 32.15 18.1398Z" fill="#00B3FF"/>
<path fill-rule="evenodd" clip-rule="evenodd" d="M38.33 32.27C36.48 32.27 34.86 33.22 33.91 34.65C32.96 33.22 31.34 32.27 29.49 32.27C27.64 32.27 26.02 33.22 25.07 34.65C24.12 33.22 22.5 32.27 20.65 32.27C18.8 32.27 17.18 33.22 16.23 34.65C15.28 33.22 13.66 32.27 11.81 32.27C8.88001 32.27 6.51001 34.64 6.51001 37.57V39.34H43.61V37.57C43.61 34.64 41.24 32.27 38.31 32.27H38.33ZM8.30001 37.57C8.30001 35.62 9.88001 34.04 11.83 34.04C13.78 34.04 15.36 35.62 15.36 37.57H8.29001H8.30001ZM17.13 37.57C17.13 35.62 18.71 34.04 20.66 34.04C22.61 34.04 24.19 35.62 24.19 37.57H17.12H17.13ZM25.96 37.57C25.96 35.62 27.54 34.04 29.49 34.04C31.44 34.04 33.02 35.62 33.02 37.57H25.95H25.96ZM34.79 37.57C34.79 35.62 36.37 34.04 38.32 34.04C40.27 34.04 41.85 35.62 41.85 37.57H34.78H34.79Z" fill="#00B3FF"/>
<path fill-rule="evenodd" clip-rule="evenodd" d="M4.76958 5.76958H43.6304V30.4938H41.8608V32.2633H43.6304C44.6102 32.2633 45.4 31.4735 45.4 30.4938V5.76958C45.4 4.78981 44.6102 4 43.6304 4H4.76958C3.78981 4 3 4.78981 3 5.76958V30.4938C3 31.4735 3.78981 32.2633 4.76958 32.2633H8.29875V30.4938H4.76958V5.76958Z" fill="#00B3FF"/>
<path d="M17.1299 30.5002C18.4499 30.5002 19.5799 31.2302 20.1899 32.3002C20.3499 32.2902 20.4999 32.2702 20.6599 32.2702C21.3799 32.2702 22.0699 32.4202 22.6999 32.6802C23.2299 31.4002 24.4899 30.5002 25.9599 30.5002C27.2799 30.5002 28.4099 31.2302 29.0199 32.3002C29.1799 32.2902 29.3299 32.2702 29.4899 32.2702C30.2099 32.2702 30.8999 32.4202 31.5299 32.6802C32.0599 31.4002 33.3199 30.5002 34.7899 30.5002C36.1099 30.5002 37.2399 31.2302 37.8499 32.3002C38.0099 32.2902 38.1599 32.2702 38.3199 32.2702C38.8499 32.2702 39.3599 32.3702 39.8399 32.5202C39.1799 30.3402 37.1799 28.7402 34.7899 28.7402C32.9399 28.7402 31.3199 29.6902 30.3699 31.1202C29.4199 29.6902 27.7999 28.7402 25.9499 28.7402C24.0999 28.7402 22.4799 29.6902 21.5299 31.1202C20.5799 29.6902 18.9599 28.7402 17.1099 28.7402C14.7999 28.7402 12.8499 30.2302 12.1299 32.2902C12.7399 32.3302 13.3199 32.4602 13.8499 32.6802C14.3799 31.4002 15.6399 30.5002 17.1099 30.5002H17.1299Z" fill="#00B3FF"/>
<path d="M27.73 25.1999C27.73 23.2499 29.31 21.6699 31.26 21.6699H33.03C34.98 21.6699 36.56 23.2499 36.56 25.1999V29.0399C37.22 29.2799 37.82 29.6499 38.33 30.1199V25.1999C38.33 22.2699 35.96 19.8999 33.03 19.8999H31.26C28.33 19.8999 25.96 22.2699 25.96 25.1999V28.7299C26.58 28.7299 27.17 28.8499 27.73 29.0399V25.1999Z" fill="#00B3FF"/>
</svg>
